# xmcd CD database file generated by LOLA_Freedb v0.9beta0
# 
# Track frame offsets:
#      150
#      17824
#      43142
#      57441
#      81624
#      103710
#      118242
#      139819
#      154238
# 
# Disc length: 2233 seconds
# 
# Revision: 0 
# Processed by: cddbd v1.5.1PL2 Copyright (c) Steve Scherf et al.
# Submitted via: LOLA_Freedb v0.9beta0
# 
DISCID=8308b709
DTITLE=Exile - Mixed emotions
DYEAR=1900
DGENRE=
TTITLE0=Exile - You thrill me
TTITLE1=Exile - Never gonna stop
TTITLE2=Exile - There's been a change
TTITLE3=Exile - You and me
TTITLE4=Exile - Kiss you all over
TTITLE5=Exile - Ain't got time
TTITLE6=Exile - Don't do it
TTITLE7=Exile - One step at a time
TTITLE8=Exile - Stay with me
EXTD=
EXTT0=
EXTT1=
EXTT2=
EXTT3=
EXTT4=
EXTT5=
EXTT6=
EXTT7=
EXTT8=
PLAYORDER=
